<svg xmlns="http://www.w3.org/2000/svg" width="52" height="14.836" viewBox="0 0 52 14.836"><defs><style>.a{fill:#32b1cc;}.b{fill:#2d75bb;}.c{fill:#195c85;}.d{fill:#e97424;}.e{fill:#3e8051;}.f{fill:#55b56a;}.g{fill:#f9bb4b;}.h{fill:#f4f4e6;}</style></defs><g transform="translate(51.558 -28.397)"><path class="a" d="M16,57H31.825v1.978H16Z" transform="translate(-31.383 -15.745)"/><g transform="translate(-14.394 34.332)"><path class="b" d="M18,43h1.978v6.924H18Z" transform="translate(-18 -43)"/><path class="b" d="M26,43h1.978v6.924H26Z" transform="translate(-22.044 -43)"/><path class="b" d="M34,43h1.978v6.924H34Z" transform="translate(-26.087 -43)"/><path class="b" d="M42,43h1.978v6.924H42Z" transform="translate(-30.131 -43)"/></g><path class="a" d="M16,39H31.825v1.978H16Z" transform="translate(-31.383 -6.646)"/><path class="c" d="M31.825,34.956H16L23.913,31Z" transform="translate(-31.383 -2.603)"/><path class="d" d="M3.462,0V8.407H4.945L2.473,10.88,0,8.407H1.484V0Z" transform="translate(-27.505 40.177) rotate(-90)"/><g transform="translate(-51.558 30.907)"><path class="e" d="M9,3H29.771V13.88H9Z" transform="translate(-9 -3)"/><path class="f" d="M13,7H32.782v9.891H13Z" transform="translate(-11.022 -5.022)"/><path class="g" d="M31.342,11H18.484A1.484,1.484,0,0,1,17,12.484v2.967a1.484,1.484,0,0,1,1.484,1.484H31.342a1.484,1.484,0,0,1,1.484-1.484V12.484A1.484,1.484,0,0,1,31.342,11Z" transform="translate(-13.044 -7.044)"/><ellipse class="h" cx="1.137" cy="0.853" rx="1.137" ry="0.853" transform="translate(5.823 5.948)"/><circle class="h" cx="0.853" cy="0.853" r="0.853" transform="translate(16.054 5.948)"/><circle class="h" cx="1.989" cy="1.989" r="1.989" transform="translate(9.801 4.811)"/></g></g></svg>